<svg width="32" height="33" viewBox="0 0 32 33" fill="none" xmlns="http://www.w3.org/2000/svg">
<g id="Frame 10">
<path id="Vector" d="M20.4161 14.9423C20.1933 14.9414 19.9727 14.987 19.7686 15.0763C19.5644 15.1655 19.3812 15.2964 19.2306 15.4606C19.08 15.6248 18.9653 15.8186 18.8939 16.0297C18.8225 16.2407 18.796 16.4644 18.8161 16.6863H22.1121C22.1333 16.456 22.1045 16.2239 22.0275 16.006C21.9504 15.788 21.8271 15.5892 21.6659 15.4235C21.5047 15.2577 21.3095 15.1289 21.0938 15.0458C20.878 14.9627 20.6468 14.9274 20.4161 14.9423Z" fill="#BCBBB8"/>
<path id="Vector_2" d="M11.9836 16.7183H10.0156V19.8223H11.6156C13.2156 19.8223 13.9196 19.2943 13.9196 18.2223C13.9196 17.1503 13.1836 16.7183 11.9836 16.7183Z" fill="#BCBBB8"/>
<path id="Vector_3" d="M13.3756 13.8703C13.3756 13.0223 12.8156 12.5103 11.8556 12.5103H10.0156V15.2943H11.3756C12.7996 15.2943 13.3756 14.7823 13.3756 13.8703Z" fill="#BCBBB8"/>
<path id="Vector_4" d="M16 0.238281C12.8355 0.238281 9.74207 1.17666 7.11088 2.93477C4.4797 4.69287 2.42894 7.19173 1.21793 10.1153C0.00693254 13.039 -0.309921 16.256 0.307443 19.3597C0.924806 22.4634 2.44866 25.3143 4.6863 27.552C6.92394 29.7896 9.77486 31.3135 12.8786 31.9308C15.9823 32.5482 19.1993 32.2313 22.1229 31.0203C25.0466 29.8093 27.5454 27.7586 29.3035 25.1274C31.0616 22.4962 32 19.4028 32 16.2383C32 14.1371 31.5861 12.0566 30.7821 10.1153C29.978 8.17413 28.7994 6.41031 27.3137 4.92457C25.828 3.43883 24.0641 2.26028 22.1229 1.45621C20.1817 0.652133 18.1012 0.238281 16 0.238281ZM12.32 21.3583H8V10.9583H12.32C14.192 10.9583 15.424 11.9343 15.424 13.5183C15.4461 14.0504 15.2778 14.573 14.9494 14.9923C14.621 15.4116 14.1539 15.7002 13.632 15.8063C13.9628 15.8139 14.2885 15.889 14.5893 16.0269C14.89 16.1648 15.1595 16.3626 15.3811 16.6083C15.6028 16.8539 15.772 17.1422 15.8784 17.4555C15.9848 17.7687 16.0262 18.1005 16 18.4303C16 20.2863 14.4 21.3583 12.32 21.3583ZM18 11.7583H22.8V12.5583H18V11.7583ZM24 17.9183H18.72V18.1423C18.6925 18.3854 18.7174 18.6316 18.7931 18.8643C18.8688 19.097 18.9934 19.3107 19.1587 19.4912C19.324 19.6716 19.526 19.8145 19.7512 19.9103C19.9763 20.006 20.2194 20.0524 20.464 20.0463C20.8074 20.0996 21.1586 20.027 21.4527 19.8417C21.7467 19.6565 21.9639 19.3711 22.064 19.0383H24C23.8276 19.8063 23.3782 20.4839 22.7376 20.9414C22.0971 21.3989 21.3104 21.6043 20.528 21.5183C20.0279 21.5688 19.5229 21.5091 19.0483 21.3434C18.5738 21.1777 18.1414 20.91 17.7814 20.5592C17.4215 20.2085 17.1428 19.783 16.9649 19.3129C16.7871 18.8428 16.7144 18.3395 16.752 17.8383V17.1343C16.718 16.6486 16.7895 16.1614 16.9615 15.7059C17.1335 15.2505 17.4019 14.8376 17.7484 14.4957C18.095 14.1537 18.5113 13.8908 18.969 13.7248C19.4267 13.5589 19.9148 13.4939 20.4 13.5343C20.8836 13.5033 21.3681 13.5762 21.8211 13.7482C22.2741 13.9203 22.685 14.1873 23.0261 14.5315C23.3672 14.8756 23.6306 15.2888 23.7986 15.7433C23.9666 16.1978 24.0353 16.683 24 17.1663V17.9183Z" fill="#BCBBB8"/>
</g>
</svg>
