<svg width="72" height="72" viewBox="0 0 72 72" fill="none" xmlns="http://www.w3.org/2000/svg">
<circle cx="35.8102" cy="35.9956" r="35.8102" fill="#050107"/>
<g clip-path="url(#clip0_251_420)">
<path fill-rule="evenodd" clip-rule="evenodd" d="M29.8883 18.0905C26.5938 18.0905 23.9199 20.7644 23.9199 24.0589C23.9199 27.3534 26.5938 30.0273 29.8883 30.0273C26.5938 30.0273 23.9199 32.7011 23.9199 35.9956C23.9199 39.2902 26.5938 41.964 29.8883 41.964C26.5938 41.964 23.9199 44.6378 23.9199 47.9324C23.9199 51.2269 26.5938 53.9008 29.8883 53.9008C33.1828 53.9008 35.8567 51.2269 35.8567 47.9324L35.8567 35.9956C35.8567 39.2902 38.5305 41.964 41.825 41.964C45.1196 41.964 47.7934 39.2902 47.7934 35.9956C47.7934 32.7011 45.1196 30.0273 41.825 30.0273C45.1196 30.0273 47.7934 27.3534 47.7934 24.0589C47.7934 20.7644 45.1196 18.0905 41.825 18.0905H29.8883ZM41.825 30.0273H35.8567L35.8567 35.9956C35.8567 32.7011 38.5305 30.0273 41.825 30.0273Z" fill="#DD256B" fill-opacity="0.8"/>
</g>
<defs>
<clipPath id="clip0_251_420">
<rect width="35.8102" height="35.8102" fill="white" transform="translate(17.9043 18.0905)"/>
</clipPath>
</defs>
</svg>
