<svg width="172" height="172" viewBox="0 0 172 172" fill="none" xmlns="http://www.w3.org/2000/svg">
<g filter="url(#filter0_d_110_758)">
<circle cx="85.8102" cy="81.9957" r="35.8102" fill="#050107"/>
</g>
<g clip-path="url(#clip0_110_758)">
<path fill-rule="evenodd" clip-rule="evenodd" d="M79.8883 64.0905C76.5938 64.0905 73.9199 66.7644 73.9199 70.0589C73.9199 73.3534 76.5938 76.0273 79.8883 76.0273C76.5938 76.0273 73.9199 78.7011 73.9199 81.9956C73.9199 85.2902 76.5938 87.964 79.8883 87.964C76.5938 87.964 73.9199 90.6378 73.9199 93.9324C73.9199 97.2269 76.5938 99.9008 79.8883 99.9008C83.1828 99.9008 85.8567 97.2269 85.8567 93.9324L85.8567 81.9956C85.8567 85.2902 88.5305 87.964 91.825 87.964C95.1196 87.964 97.7934 85.2902 97.7934 81.9956C97.7934 78.7011 95.1196 76.0273 91.825 76.0273C95.1196 76.0273 97.7934 73.3534 97.7934 70.0589C97.7934 66.7644 95.1196 64.0905 91.825 64.0905H79.8883ZM91.825 76.0273H85.8567L85.8567 81.9956C85.8567 78.7011 88.5305 76.0273 91.825 76.0273Z" fill="#DD256B" fill-opacity="0.8"/>
</g>
<defs>
<filter id="filter0_d_110_758" x="0" y="0.185425" width="171.62" height="171.62" filterUnits="userSpaceOnUse" color-interpolation-filters="sRGB">
<feFlood flood-opacity="0" result="BackgroundImageFix"/>
<feColorMatrix in="SourceAlpha" type="matrix" values="0 0 0 0 0 0 0 0 0 0 0 0 0 0 0 0 0 0 127 0" result="hardAlpha"/>
<feOffset dy="4"/>
<feGaussianBlur stdDeviation="25"/>
<feComposite in2="hardAlpha" operator="out"/>
<feColorMatrix type="matrix" values="0 0 0 0 0 0 0 0 0 0 0 0 0 0 0 0 0 0 0.5 0"/>
<feBlend mode="normal" in2="BackgroundImageFix" result="effect1_dropShadow_110_758"/>
<feBlend mode="normal" in="SourceGraphic" in2="effect1_dropShadow_110_758" result="shape"/>
</filter>
<clipPath id="clip0_110_758">
<rect width="35.8102" height="35.8102" fill="white" transform="translate(67.9053 64.0905)"/>
</clipPath>
</defs>
</svg>
