<svg width="32" height="33" viewBox="0 0 32 33" fill="none" xmlns="http://www.w3.org/2000/svg">
<g id="Frame 9">
<path id="Shape" fill-rule="evenodd" clip-rule="evenodd" d="M16 0.238281C7.16 0.238281 0 7.57938 0 16.643C0 23.9021 4.58 30.0333 10.94 32.2069C11.74 32.3505 12.04 31.8583 12.04 31.4277C12.04 31.0381 12.02 29.7462 12.02 28.3723C8 29.1311 6.96 27.3676 6.64 26.4448C6.46 25.9732 5.68 24.5172 5 24.1276C4.44 23.82 3.64 23.0613 4.98 23.0408C6.24 23.0203 7.14 24.2302 7.44 24.7223C8.88 27.2035 11.18 26.5063 12.1 26.0757C12.24 25.0094 12.66 24.2917 13.12 23.8816C9.56 23.4714 5.84 22.0565 5.84 15.7817C5.84 13.9977 6.46 12.5213 7.48 11.373C7.32 10.9629 6.76 9.28137 7.64 7.02573C7.64 7.02573 8.98 6.5951 12.04 8.70721C13.32 8.3381 14.68 8.15355 16.04 8.15355C17.4 8.15355 18.76 8.3381 20.04 8.70721C23.1 6.5746 24.44 7.02573 24.44 7.02573C25.32 9.28137 24.76 10.9629 24.6 11.373C25.62 12.5213 26.24 13.9772 26.24 15.7817C26.24 22.077 22.5 23.4714 18.94 23.8816C19.52 24.3942 20.02 25.3785 20.02 26.9164C20.02 29.1106 20 30.8741 20 31.4277C20 31.8583 20.3 32.371 21.1 32.2069C27.42 30.0333 32 23.8816 32 16.643C32 7.57938 24.84 0.238281 16 0.238281Z" fill="#BCBBB8"/>
</g>
</svg>
