<svg width="32" height="33" viewBox="0 0 32 33" fill="none" xmlns="http://www.w3.org/2000/svg">
<path id="Subtract" fill-rule="evenodd" clip-rule="evenodd" d="M32 16.2383C32 7.40228 24.837 0.238281 15.9999 0.238281C7.16301 0.238281 0 7.40239 0 16.2383C0 25.0743 7.1629 32.2383 15.9999 32.2383C24.837 32.2383 32 25.0744 32 16.2383ZM12.012 22.2223H9.01599V12.2362H12.012V22.2223ZM17.0101 13.5934C17.933 12.4213 19.234 11.8903 20.688 11.8903C22.143 11.8903 24.007 12.6163 24.0071 16.5534V22.2214H21.0111V16.7764C21.0111 15.6593 20.687 14.5423 19.3731 14.5423C18.0591 14.5423 17.0101 15.6593 17.0101 16.8044V22.2224H14.0031V12.2034H17.0101V13.5934ZM12 9.73825C12 10.5663 11.328 11.2383 10.5 11.2383C9.67198 11.2383 8.99995 10.5664 8.99995 9.73835C8.99995 8.91034 9.67198 8.23831 10.5 8.23831C11.328 8.23831 12 8.91023 12 9.73825Z" fill="#BCBBB8"/>
</svg>
