<svg width="64" height="65" viewBox="0 0 64 65" fill="none" xmlns="http://www.w3.org/2000/svg">
<path d="M10 14.1542H54V44.1542C54 44.6846 53.7893 45.1933 53.4142 45.5684C53.0391 45.9435 52.5304 46.1542 52 46.1542H42C41.4696 46.1542 40.9609 45.9435 40.5858 45.5684C40.2107 45.1933 40 44.6846 40 44.1542V38.1542H24V52.1542C24 52.6846 23.7893 53.1933 23.4142 53.5684C23.0391 53.9435 22.5304 54.1542 22 54.1542H12C11.4696 54.1542 10.9609 53.9435 10.5858 53.5684C10.2107 53.1933 10 52.6846 10 52.1542V14.1542Z" stroke="#DD256B" stroke-linecap="round" stroke-linejoin="round"/>
<path d="M24 30.1542H10" stroke="#DD256B" stroke-linecap="round" stroke-linejoin="round"/>
<path d="M24 14.1542V38.1542" stroke="#DD256B" stroke-linecap="round" stroke-linejoin="round"/>
<path d="M40 30.1542H54" stroke="#DD256B" stroke-linecap="round" stroke-linejoin="round"/>
<path d="M40 14.1542V38.1542" stroke="#DD256B" stroke-linecap="round" stroke-linejoin="round"/>
<g filter="url(#filter0_d_105_156)">
<circle cx="32" cy="34.1542" r="20" fill="#DD256B" fill-opacity="0.2" shape-rendering="crispEdges"/>
</g>
<defs>
<filter id="filter0_d_105_156" x="8" y="14.1542" width="48" height="48" filterUnits="userSpaceOnUse" color-interpolation-filters="sRGB">
<feFlood flood-opacity="0" result="BackgroundImageFix"/>
<feColorMatrix in="SourceAlpha" type="matrix" values="0 0 0 0 0 0 0 0 0 0 0 0 0 0 0 0 0 0 127 0" result="hardAlpha"/>
<feOffset dy="4"/>
<feGaussianBlur stdDeviation="2"/>
<feComposite in2="hardAlpha" operator="out"/>
<feColorMatrix type="matrix" values="0 0 0 0 0 0 0 0 0 0 0 0 0 0 0 0 0 0 0.25 0"/>
<feBlend mode="normal" in2="BackgroundImageFix" result="effect1_dropShadow_105_156"/>
<feBlend mode="normal" in="SourceGraphic" in2="effect1_dropShadow_105_156" result="shape"/>
</filter>
</defs>
</svg>
