<svg width="172" height="172" viewBox="0 0 172 172" fill="none" xmlns="http://www.w3.org/2000/svg">
<g id="Group 30">
<g id="Ellipse 4" filter="url(#filter0_d_110_755)">
<circle cx="85.8102" cy="81.8102" r="35.8102" fill="#050107"/>
</g>
<path id="Vector" d="M99.2071 75.5119C98.7895 75.3682 98.3569 75.2322 97.9114 75.1036C97.9846 74.8048 98.0518 74.5098 98.1116 74.2199C99.0924 69.459 98.4511 65.6236 96.2613 64.3608C94.1616 63.15 90.7277 64.4125 87.2596 67.4307C86.9261 67.7209 86.5917 68.0282 86.2574 68.3502C86.0347 68.1371 85.8123 67.9312 85.5905 67.7343C81.9558 64.5071 78.3127 63.1471 76.125 64.4135C74.0273 65.6278 73.4061 69.2335 74.289 73.7454C74.3742 74.1812 74.4739 74.6262 74.5866 75.0787C74.071 75.2251 73.5732 75.3811 73.0969 75.5471C68.8357 77.0328 66.1143 79.3612 66.1143 81.7763C66.1143 84.2707 69.0357 86.7726 73.4741 88.2897C73.8244 88.4094 74.1878 88.5226 74.5624 88.63C74.4408 89.1194 74.335 89.599 74.2463 90.0668C73.4045 94.5004 74.0619 98.0208 76.154 99.2275C78.3149 100.474 81.9416 99.1928 85.4731 96.1058C85.7523 95.8618 86.0324 95.603 86.313 95.3318C86.6767 95.682 87.0399 96.0135 87.4011 96.3245C90.8218 99.2681 94.2002 100.457 96.2904 99.2466C98.4492 97.9969 99.1508 94.2151 98.2399 89.6139C98.1704 89.2625 98.0894 88.9035 97.9985 88.5381C98.2532 88.4628 98.5032 88.3851 98.747 88.3043C103.361 86.7755 106.363 84.304 106.363 81.7763C106.363 79.3524 103.554 77.0084 99.2071 75.5119ZM98.2063 86.6722C97.9862 86.745 97.7604 86.8155 97.5303 86.8837C97.0209 85.2711 96.3334 83.5564 95.4921 81.7847C96.2949 80.0553 96.9558 78.3624 97.4509 76.7603C97.8627 76.8794 98.2623 77.0051 98.6474 77.1377C102.372 78.4199 104.644 80.3156 104.644 81.7763C104.644 83.3323 102.19 85.3521 98.2063 86.6722ZM96.5532 89.9478C96.956 91.9824 97.0135 93.8219 96.7467 95.2599C96.507 96.5521 96.0249 97.4136 95.4288 97.7586C94.1604 98.4928 91.4479 97.5385 88.5225 95.0211C88.1871 94.7325 87.8493 94.4244 87.5104 94.0982C88.6445 92.8579 89.778 91.4159 90.8842 89.8145C92.83 89.6418 94.6683 89.3596 96.3353 88.9742C96.4174 89.3054 96.4904 89.6302 96.5532 89.9478ZM79.8361 97.6317C78.5968 98.0694 77.6098 98.0819 77.0131 97.7379C75.7435 97.0056 75.2158 94.1791 75.9357 90.3874C76.0182 89.9532 76.1163 89.5072 76.2294 89.0512C77.8782 89.4158 79.703 89.6782 81.6534 89.8363C82.7671 91.4033 83.9333 92.8437 85.1085 94.1049C84.8518 94.3528 84.596 94.5888 84.3417 94.8112C82.7801 96.1762 81.2152 97.1446 79.8361 97.6317ZM74.0302 86.6627C72.0676 85.9919 70.4469 85.12 69.3359 84.1687C68.3376 83.3138 67.8336 82.465 67.8336 81.7763C67.8336 80.3107 70.0186 78.4414 73.6629 77.1708C74.1051 77.0166 74.568 76.8713 75.0483 76.7348C75.552 78.3732 76.2127 80.0861 77.01 81.8182C76.2023 83.576 75.5323 85.3162 75.0237 86.9737C74.6812 86.8753 74.3495 86.7717 74.0302 86.6627ZM75.9764 73.4152C75.22 69.5495 75.7223 66.6333 76.9865 65.9016C78.333 65.122 81.3105 66.2335 84.4488 69.02C84.6494 69.1982 84.8508 69.3846 85.0527 69.5774C83.8833 70.8331 82.7278 72.2627 81.624 73.8205C79.731 73.9959 77.9191 74.2778 76.2531 74.6552C76.1483 74.2338 76.0556 73.8199 75.9764 73.4152ZM93.338 77.7022C92.9397 77.0143 92.5309 76.3427 92.1141 75.6893C93.3983 75.8517 94.6287 76.0672 95.7841 76.3309C95.4372 77.4427 95.0048 78.6051 94.4959 79.7967C94.1308 79.1036 93.7446 78.4047 93.338 77.7022ZM86.258 70.8062C87.0511 71.6655 87.8453 72.6248 88.6265 73.6656C87.8393 73.6284 87.0423 73.6091 86.2388 73.6091C85.4428 73.6091 84.6518 73.628 83.8694 73.6645C84.6514 72.6333 85.4525 71.6753 86.258 70.8062ZM79.1326 77.7141C78.7348 78.404 78.3558 79.099 77.9964 79.7954C77.4957 78.6079 77.0674 77.4402 76.7175 76.3127C77.8658 76.0557 79.0904 75.8456 80.3664 75.6863C79.9437 76.3457 79.5315 77.0223 79.1326 77.714V77.7141ZM80.4032 87.989C79.0848 87.8419 77.8418 87.6426 76.6937 87.3927C77.0492 86.245 77.487 85.0524 77.9984 83.8394C78.3587 84.5352 78.7391 85.2306 79.1394 85.9219H79.1395C79.5472 86.6263 79.9696 87.3162 80.4032 87.989ZM86.3056 92.8676C85.4906 91.9884 84.6778 91.0157 83.8839 89.9695C84.6545 89.9998 85.4403 90.0152 86.2388 90.0152C87.0592 90.0152 87.8702 89.9968 88.6684 89.9612C87.8846 91.0263 87.0933 92.0004 86.3056 92.8676ZM94.5123 83.7775C95.0503 85.0037 95.5038 86.1901 95.8638 87.3182C94.6969 87.5844 93.4369 87.7988 92.1093 87.9582C92.5272 87.296 92.9396 86.6129 93.3449 85.9101C93.7549 85.1991 94.1442 84.4871 94.5123 83.7775ZM91.8555 85.0511C91.2263 86.142 90.5804 87.1834 89.9247 88.1664C88.7303 88.2518 87.4964 88.2958 86.2388 88.2958C84.9862 88.2958 83.7679 88.2569 82.5947 88.1808C81.9125 87.1849 81.2525 86.1404 80.6274 85.0605H80.6275C80.004 83.9836 79.4301 82.8975 78.9102 81.8176C79.43 80.7351 80.0023 79.6479 80.6223 78.5729L80.6221 78.5731C81.2437 77.4952 81.8979 76.4558 82.5738 75.4662C83.7708 75.3757 84.9982 75.3285 86.2387 75.3285H86.2388C87.4849 75.3285 88.7139 75.376 89.9105 75.4673C90.5761 76.4498 91.2258 77.4858 91.8498 78.5638C92.4809 79.6539 93.0607 80.7339 93.585 81.7932C93.0623 82.8706 92.4838 83.9615 91.8555 85.0511ZM95.4025 65.8504C96.7503 66.6277 97.2744 69.7623 96.4276 73.8728C96.3736 74.1351 96.3128 74.4023 96.2467 74.673C94.5769 74.2877 92.7636 74.001 90.8651 73.8229C89.7592 72.248 88.6131 70.8162 87.4627 69.5766C87.772 69.2791 88.0809 68.9954 88.3884 68.7277C91.3599 66.1417 94.1371 65.1207 95.4025 65.8504ZM86.2388 78.1822C88.2237 78.1822 89.8329 79.7913 89.8329 81.7763C89.8329 83.7613 88.2237 85.3704 86.2388 85.3704C84.2538 85.3704 82.6447 83.7613 82.6447 81.7763C82.6447 79.7913 84.2538 78.1822 86.2388 78.1822Z" fill="#DD256B" fill-opacity="0.8"/>
</g>
<defs>
<filter id="filter0_d_110_755" x="0" y="0" width="171.62" height="171.62" filterUnits="userSpaceOnUse" color-interpolation-filters="sRGB">
<feFlood flood-opacity="0" result="BackgroundImageFix"/>
<feColorMatrix in="SourceAlpha" type="matrix" values="0 0 0 0 0 0 0 0 0 0 0 0 0 0 0 0 0 0 127 0" result="hardAlpha"/>
<feOffset dy="4"/>
<feGaussianBlur stdDeviation="25"/>
<feComposite in2="hardAlpha" operator="out"/>
<feColorMatrix type="matrix" values="0 0 0 0 0 0 0 0 0 0 0 0 0 0 0 0 0 0 0.5 0"/>
<feBlend mode="normal" in2="BackgroundImageFix" result="effect1_dropShadow_110_755"/>
<feBlend mode="normal" in="SourceGraphic" in2="effect1_dropShadow_110_755" result="shape"/>
</filter>
</defs>
</svg>
