<svg width="72" height="72" viewBox="0 0 72 72" fill="none" xmlns="http://www.w3.org/2000/svg">
<circle cx="35.8102" cy="35.8102" r="35.8102" fill="#050107"/>
<path d="M49.208 29.5119C48.7905 29.3682 48.3578 29.2322 47.9124 29.1036C47.9856 28.8048 48.0528 28.5098 48.1125 28.2199C49.0933 23.459 48.4521 19.6236 46.2623 18.3608C44.1626 17.15 40.7287 18.4125 37.2606 21.4307C36.9271 21.7209 36.5927 22.0282 36.2584 22.3502C36.0356 22.1371 35.8133 21.9312 35.5915 21.7343C31.9568 18.5071 28.3136 17.1471 26.126 18.4135C24.0283 19.6278 23.4071 23.2335 24.29 27.7454C24.3752 28.1812 24.4749 28.6262 24.5876 29.0787C24.072 29.2251 23.5742 29.3811 23.0979 29.5471C18.8367 31.0328 16.1152 33.3612 16.1152 35.7763C16.1152 38.2707 19.0367 40.7726 23.4751 42.2897C23.8254 42.4094 24.1888 42.5226 24.5633 42.63C24.4418 43.1194 24.336 43.599 24.2473 44.0668C23.4055 48.5004 24.0629 52.0208 26.155 53.2275C28.3159 54.4737 31.9426 53.1928 35.4741 50.1058C35.7532 49.8618 36.0334 49.603 36.314 49.3318C36.6777 49.682 37.0409 50.0135 37.4021 50.3245C40.8227 53.2681 44.2012 54.4567 46.2914 53.2466C48.4502 51.9969 49.1518 48.2151 48.2409 43.6139C48.1714 43.2625 48.0904 42.9035 47.9995 42.5381C48.2542 42.4628 48.5042 42.3851 48.748 42.3043C53.3622 40.7755 56.3643 38.304 56.3643 35.7763C56.3643 33.3524 53.5551 31.0084 49.208 29.5119ZM48.2073 40.6722C47.9872 40.745 47.7613 40.8155 47.5312 40.8837C47.0218 39.2711 46.3344 37.5564 45.4931 35.7847C46.2959 34.0553 46.9568 32.3624 47.4519 30.7603C47.8637 30.8794 48.2633 31.0051 48.6484 31.1377C52.3729 32.4199 54.6449 34.3156 54.6449 35.7763C54.6449 37.3323 52.1912 39.3521 48.2073 40.6722ZM46.5542 43.9478C46.9569 45.9824 47.0145 47.8219 46.7477 49.2599C46.508 50.5521 46.0259 51.4136 45.4298 51.7586C44.1614 52.4928 41.4488 51.5385 38.5234 49.0211C38.1881 48.7325 37.8503 48.4244 37.5114 48.0982C38.6455 46.8579 39.779 45.4159 40.8852 43.8145C42.831 43.6418 44.6692 43.3596 46.3363 42.9742C46.4184 43.3054 46.4913 43.6302 46.5542 43.9478ZM29.837 51.6317C28.5978 52.0694 27.6107 52.0819 27.0141 51.7379C25.7445 51.0056 25.2167 48.1791 25.9367 44.3874C26.0191 43.9532 26.1173 43.5072 26.2304 43.0512C27.8792 43.4158 29.704 43.6782 31.6544 43.8363C32.7681 45.4033 33.9343 46.8437 35.1095 48.1049C34.8528 48.3528 34.597 48.5888 34.3427 48.8112C32.7811 50.1762 31.2162 51.1446 29.837 51.6317ZM24.0312 40.6627C22.0686 39.9919 20.4478 39.12 19.3369 38.1687C18.3386 37.3138 17.8346 36.465 17.8346 35.7763C17.8346 34.3107 20.0196 32.4414 23.6639 31.1708C24.1061 31.0166 24.5689 30.8713 25.0493 30.7348C25.553 32.3732 26.2136 34.0861 27.011 35.8182C26.2033 37.576 25.5332 39.3162 25.0247 40.9737C24.6822 40.8753 24.3504 40.7717 24.0312 40.6627ZM25.9774 27.4152C25.221 23.5495 25.7233 20.6333 26.9875 19.9016C28.334 19.122 31.3115 20.2335 34.4498 23.02C34.6504 23.1981 34.8518 23.3846 35.0537 23.5774C33.8843 24.8331 32.7288 26.2627 31.625 27.8205C29.732 27.9959 27.92 28.2778 26.254 28.6552C26.1493 28.2338 26.0565 27.8199 25.9774 27.4152ZM43.339 31.7022C42.9407 31.0143 42.5319 30.3427 42.115 29.6893C43.3992 29.8517 44.6296 30.0672 45.7851 30.3309C45.4382 31.4427 45.0058 32.6051 44.4969 33.7967C44.1318 33.1036 43.7456 32.4047 43.339 31.7022ZM36.259 24.8062C37.052 25.6655 37.8463 26.6248 38.6275 27.6656C37.8403 27.6284 37.0433 27.6091 36.2398 27.6091C35.4438 27.6091 34.6527 27.628 33.8704 27.6645C34.6524 26.6333 35.4535 25.6753 36.259 24.8062ZM29.1336 31.7141C28.7358 32.404 28.3568 33.099 27.9974 33.7954C27.4967 32.6079 27.0683 31.4402 26.7184 30.3127C27.8668 30.0557 29.0914 29.8456 30.3674 29.6863C29.9447 30.3457 29.5325 31.0223 29.1336 31.714V31.7141ZM30.4042 41.989C29.0858 41.8419 27.8428 41.6426 26.6947 41.3927C27.0502 40.245 27.488 39.0524 27.9993 37.8394C28.3596 38.5352 28.7401 39.2306 29.1404 39.9219H29.1405C29.5482 40.6263 29.9706 41.3162 30.4042 41.989ZM36.3065 46.8676C35.4916 45.9884 34.6787 45.0157 33.8849 43.9695C34.6555 43.9998 35.4412 44.0152 36.2398 44.0152C37.0601 44.0152 37.8711 43.9968 38.6694 43.9612C37.8856 45.0263 37.0942 46.0004 36.3065 46.8676ZM44.5133 37.7775C45.0512 39.0037 45.5047 40.1901 45.8648 41.3182C44.6978 41.5844 43.4378 41.7988 42.1103 41.9582C42.5281 41.296 42.9406 40.6129 43.3459 39.9101C43.7559 39.1991 44.1452 38.4871 44.5133 37.7775ZM41.8565 39.0511C41.2273 40.142 40.5814 41.1834 39.9256 42.1664C38.7313 42.2518 37.4974 42.2958 36.2398 42.2958C34.9872 42.2958 33.7689 42.2569 32.5956 42.1808C31.9135 41.1849 31.2535 40.1404 30.6283 39.0605H30.6285C30.005 37.9836 29.4311 36.8975 28.9111 35.8176C29.431 34.7351 30.0033 33.6479 30.6233 32.5729L30.6231 32.5731C31.2447 31.4952 31.8989 30.4558 32.5747 29.4662C33.7717 29.3757 34.9992 29.3285 36.2397 29.3285H36.2398C37.4858 29.3285 38.7149 29.376 39.9115 29.4673C40.5771 30.4498 41.2268 31.4858 41.8508 32.5638C42.4819 33.6539 43.0617 34.7339 43.5859 35.7932C43.0632 36.8706 42.4848 37.9615 41.8565 39.0511ZM45.4034 19.8504C46.7513 20.6277 47.2754 23.7623 46.4286 27.8728C46.3746 28.1351 46.3137 28.4023 46.2477 28.673C44.5778 28.2877 42.7645 28.001 40.8661 27.8229C39.7601 26.248 38.6141 24.8162 37.4637 23.5766C37.773 23.2791 38.0818 22.9954 38.3894 22.7277C41.3609 20.1417 44.1381 19.1207 45.4034 19.8504ZM36.2398 32.1822C38.2247 32.1822 39.8339 33.7913 39.8339 35.7763C39.8339 37.7613 38.2247 39.3704 36.2398 39.3704C34.2548 39.3704 32.6457 37.7613 32.6457 35.7763C32.6457 33.7913 34.2548 32.1822 36.2398 32.1822Z" fill="#DD256B" fill-opacity="0.8"/>
</svg>
