<svg width="46" height="40" viewBox="0 0 46 40" fill="none" xmlns="http://www.w3.org/2000/svg">
<path d="M8 12.5H21.75" stroke="#DD256B" stroke-linecap="round" stroke-linejoin="round"/>
<path d="M29.25 12.5H43" stroke="#DD256B" stroke-linecap="round" stroke-linejoin="round"/>
<path d="M25.5 16.25C27.5711 16.25 29.25 14.5711 29.25 12.5C29.25 10.4289 27.5711 8.75 25.5 8.75C23.4289 8.75 21.75 10.4289 21.75 12.5C21.75 14.5711 23.4289 16.25 25.5 16.25Z" stroke="#DD256B" stroke-linecap="round" stroke-linejoin="round"/>
<path d="M11.75 31.25C13.8211 31.25 15.5 29.5711 15.5 27.5C15.5 25.4289 13.8211 23.75 11.75 23.75C9.67893 23.75 8 25.4289 8 27.5C8 29.5711 9.67893 31.25 11.75 31.25Z" stroke="#DD256B" stroke-linecap="round" stroke-linejoin="round"/>
<path d="M39.25 31.25C41.3211 31.25 43 29.5711 43 27.5C43 25.4289 41.3211 23.75 39.25 23.75C37.1789 23.75 35.5 25.4289 35.5 27.5C35.5 29.5711 37.1789 31.25 39.25 31.25Z" stroke="#DD256B" stroke-linecap="round" stroke-linejoin="round"/>
<path d="M29.2188 13.0156C31.6934 13.7104 33.9241 15.0841 35.6583 16.9812C37.3925 18.8783 38.5609 21.2231 39.0312 23.75" stroke="#DD256B" stroke-linecap="round" stroke-linejoin="round"/>
<path d="M11.9688 23.75C12.4391 21.2231 13.6075 18.8783 15.3417 16.9812C17.0759 15.0841 19.3066 13.7104 21.7812 13.0156" stroke="#DD256B" stroke-linecap="round" stroke-linejoin="round"/>
<circle cx="13" cy="21.25" r="12.5" fill="#DD256B" fill-opacity="0.2"/>
</svg>
