<svg width="172" height="172" viewBox="0 0 172 172" fill="none" xmlns="http://www.w3.org/2000/svg">
<g filter="url(#filter0_d_110_752)">
<circle cx="86.1432" cy="82.1263" r="35.8102" fill="#050107"/>
</g>
<g clip-path="url(#clip0_110_752)">
<path fill-rule="evenodd" clip-rule="evenodd" d="M101.251 64.2212H71.036C69.4908 64.2212 68.2383 65.4737 68.2383 67.0189V97.2337C68.2383 98.7788 69.4908 100.031 71.036 100.031H101.251C102.796 100.031 104.049 98.7788 104.049 97.2337V67.0189C104.049 65.4737 102.796 64.2212 101.251 64.2212ZM89.2933 96.128V92.2644C89.9941 92.852 90.7554 93.2926 91.5772 93.5864C92.3989 93.8803 93.2285 94.0272 94.0663 94.0272C94.5577 94.0272 94.9867 93.9828 95.3532 93.8943C95.7197 93.8057 96.0259 93.6831 96.2715 93.5261C96.5172 93.3692 96.7006 93.184 96.8213 92.9708C96.9421 92.7575 97.0026 92.5259 97.0026 92.2765C97.0026 91.9384 96.9059 91.6366 96.7126 91.3709C96.5193 91.1053 96.2554 90.8598 95.9211 90.6344C95.5868 90.4091 95.1901 90.1918 94.7309 89.9826C94.2718 89.7732 93.7763 89.56 93.2446 89.3426C91.8912 88.7792 90.8824 88.0909 90.2178 87.2781C89.5531 86.4651 89.2208 85.4831 89.2208 84.3321C89.2208 83.4306 89.4021 82.6559 89.7646 82.008C90.1271 81.36 90.6205 80.8268 91.2448 80.4081C91.8691 79.9896 92.5922 79.6817 93.4138 79.4846C94.2355 79.2874 95.1055 79.1887 96.0238 79.1887C96.926 79.1887 97.7256 79.243 98.4224 79.3517C99.1191 79.4604 99.7616 79.6274 100.35 79.8528V83.4627C100.06 83.2616 99.7434 83.0845 99.4011 82.9316C99.0587 82.7786 98.7063 82.6518 98.3439 82.5513C97.9813 82.4505 97.6208 82.3761 97.2623 82.3279C96.9039 82.2796 96.5636 82.2554 96.2413 82.2554C95.7983 82.2554 95.3954 82.2977 95.033 82.3821C94.6704 82.4668 94.3644 82.5854 94.1147 82.7384C93.865 82.8913 93.6715 83.0744 93.5346 83.2877C93.3976 83.5011 93.3292 83.7404 93.3292 84.0061C93.3292 84.2959 93.4057 84.5554 93.5588 84.7848C93.7118 85.0142 93.9293 85.2316 94.2113 85.4368C94.4932 85.6421 94.8356 85.8433 95.2384 86.0405C95.6412 86.2378 96.0963 86.4409 96.6038 86.6503C97.2966 86.94 97.9189 87.2479 98.4708 87.5738C99.0225 87.8999 99.4958 88.268 99.8905 88.6786C100.285 89.089 100.587 89.5579 100.797 90.0851C101.006 90.6123 101.111 91.2261 101.111 91.9264C101.111 92.8923 100.928 93.7032 100.561 94.3591C100.195 95.0152 99.6971 95.5465 99.0688 95.953C98.4406 96.3593 97.7094 96.6511 96.8757 96.8282C96.042 97.0053 95.1618 97.0938 94.2355 97.0938C93.2849 97.0938 92.3807 97.0134 91.5228 96.8524C90.6649 96.6914 89.9217 96.45 89.2933 96.128ZM87.822 82.6497H82.8536V96.8141H78.9177V82.6497H73.9735V79.4685H87.822V82.6497Z" fill="#DD256B" fill-opacity="0.8"/>
</g>
<defs>
<filter id="filter0_d_110_752" x="0.333008" y="0.316071" width="171.62" height="171.62" filterUnits="userSpaceOnUse" color-interpolation-filters="sRGB">
<feFlood flood-opacity="0" result="BackgroundImageFix"/>
<feColorMatrix in="SourceAlpha" type="matrix" values="0 0 0 0 0 0 0 0 0 0 0 0 0 0 0 0 0 0 127 0" result="hardAlpha"/>
<feOffset dy="4"/>
<feGaussianBlur stdDeviation="25"/>
<feComposite in2="hardAlpha" operator="out"/>
<feColorMatrix type="matrix" values="0 0 0 0 0 0 0 0 0 0 0 0 0 0 0 0 0 0 0.5 0"/>
<feBlend mode="normal" in2="BackgroundImageFix" result="effect1_dropShadow_110_752"/>
<feBlend mode="normal" in="SourceGraphic" in2="effect1_dropShadow_110_752" result="shape"/>
</filter>
<clipPath id="clip0_110_752">
<rect width="35.8102" height="35.8102" fill="white" transform="translate(68.2383 64.2212)"/>
</clipPath>
</defs>
</svg>
