<svg width="72" height="72" viewBox="0 0 72 72" fill="none" xmlns="http://www.w3.org/2000/svg">
<circle cx="36.1432" cy="36.1263" r="35.8102" fill="#050107"/>
<g clip-path="url(#clip0_251_413)">
<path fill-rule="evenodd" clip-rule="evenodd" d="M51.2508 18.2212H21.036C19.4908 18.2212 18.2383 19.4737 18.2383 21.0189V51.2337C18.2383 52.7788 19.4908 54.0314 21.036 54.0314H51.2508C52.7959 54.0314 54.0485 52.7788 54.0485 51.2337V21.0189C54.0485 19.4737 52.7959 18.2212 51.2508 18.2212ZM39.2933 50.128V46.2644C39.9941 46.852 40.7554 47.2926 41.5772 47.5864C42.3989 47.8803 43.2285 48.0272 44.0663 48.0272C44.5577 48.0272 44.9867 47.9828 45.3532 47.8943C45.7197 47.8057 46.0259 47.6831 46.2715 47.5261C46.5172 47.3692 46.7006 47.184 46.8213 46.9708C46.9421 46.7575 47.0026 46.5259 47.0026 46.2765C47.0026 45.9384 46.9059 45.6366 46.7126 45.3709C46.5193 45.1053 46.2554 44.8598 45.9211 44.6344C45.5868 44.4091 45.1901 44.1918 44.7309 43.9826C44.2718 43.7732 43.7763 43.56 43.2446 43.3426C41.8912 42.7792 40.8824 42.0909 40.2178 41.2781C39.5531 40.4651 39.2208 39.4831 39.2208 38.3321C39.2208 37.4306 39.4021 36.6559 39.7646 36.008C40.1271 35.36 40.6205 34.8268 41.2448 34.4081C41.8691 33.9896 42.5922 33.6817 43.4138 33.4846C44.2355 33.2874 45.1055 33.1887 46.0238 33.1887C46.926 33.1887 47.7256 33.243 48.4224 33.3517C49.1191 33.4604 49.7616 33.6274 50.3497 33.8528V37.4627C50.0597 37.2616 49.7434 37.0845 49.4011 36.9316C49.0587 36.7786 48.7063 36.6518 48.3439 36.5513C47.9813 36.4505 47.6208 36.3761 47.2623 36.3279C46.9039 36.2796 46.5636 36.2554 46.2413 36.2554C45.7983 36.2554 45.3954 36.2977 45.033 36.3821C44.6704 36.4668 44.3644 36.5854 44.1147 36.7384C43.865 36.8913 43.6715 37.0744 43.5346 37.2877C43.3976 37.5011 43.3292 37.7404 43.3292 38.0061C43.3292 38.2959 43.4057 38.5554 43.5588 38.7848C43.7118 39.0142 43.9293 39.2316 44.2113 39.4368C44.4932 39.6421 44.8356 39.8433 45.2384 40.0405C45.6412 40.2378 46.0963 40.4409 46.6038 40.6503C47.2966 40.94 47.9189 41.2479 48.4708 41.5738C49.0225 41.8999 49.4958 42.268 49.8905 42.6786C50.2852 43.089 50.5874 43.5579 50.7968 44.0851C51.0062 44.6123 51.1109 45.2261 51.1109 45.9264C51.1109 46.8923 50.9277 47.7032 50.5612 48.3591C50.1946 49.0152 49.6971 49.5465 49.0688 49.953C48.4406 50.3593 47.7094 50.6511 46.8757 50.8282C46.042 51.0053 45.1618 51.0938 44.2355 51.0938C43.2849 51.0938 42.3807 51.0134 41.5228 50.8524C40.6649 50.6914 39.9217 50.45 39.2933 50.128ZM37.822 36.6497H32.8536V50.8141H28.9177V36.6497H23.9735V33.4685H37.822V36.6497Z" fill="#DD256B" fill-opacity="0.8"/>
</g>
<defs>
<clipPath id="clip0_251_413">
<rect width="35.8102" height="35.8102" fill="white" transform="translate(18.2383 18.2212)"/>
</clipPath>
</defs>
</svg>
